
<?xml version="1.0" encoding="UTF-8"?>
<svg width="2400" height="1600" xmlns="http://www.w3.org/2000/svg">
  <defs>
    <style>
      .table { fill: #ffffff; stroke: #2563eb; stroke-width: 2; rx: 8; }
      .table-header { fill: #2563eb; }
      .table-name { fill: #ffffff; font-family: Arial, sans-serif; font-size: 12px; font-weight: bold; text-anchor: middle; dominant-baseline: middle; }
      .field { font-family: Arial, sans-serif; font-size: 9px; fill: #1f2937; }
      .pk { font-weight: bold; fill: #dc2626; }
      .fk { fill: #059669; }
      .connection { stroke: #6b7280; stroke-width: 1.5; fill: none; }
      .connection-label { font-family: Arial, sans-serif; font-size: 8px; fill: #6b7280; text-anchor: middle; }
    </style>
  </defs>
  
  <!-- Sessions Table -->
  <rect class="table" x="50" y="50" width="160" height="100"/>
  <rect class="table-header" x="50" y="50" width="160" height="25"/>
  <text class="table-name" x="130" y="62">sessions</text>
  <text class="field pk" x="60" y="80">sid (PK)</text>
  <text class="field" x="60" y="95">sess</text>
  <text class="field" x="60" y="110">expire</text>
  <text class="field" x="60" y="125">created_at</text>
  
  <!-- Users Table -->
  <rect class="table" x="250" y="50" width="180" height="420"/>
  <rect class="table-header" x="250" y="50" width="180" height="25"/>
  <text class="table-name" x="340" y="62">users</text>
  <text class="field pk" x="260" y="80">id (PK)</text>
  <text class="field" x="260" y="95">email</text>
  <text class="field" x="260" y="110">password</text>
  <text class="field" x="260" y="125">firstName</text>
  <text class="field" x="260" y="140">lastName</text>
  <text class="field" x="260" y="155">profileImageUrl</text>
  <text class="field" x="260" y="170">coverImageUrl</text>
  <text class="field" x="260" y="185">backgroundImageUrl</text>
  <text class="field" x="260" y="200">birthdate</text>
  <text class="field" x="260" y="215">hometown</text>
  <text class="field" x="260" y="230">showOnlineStatus</text>
  <text class="field" x="260" y="245">allowFriendRequests</text>
  <text class="field" x="260" y="260">showActivityStatus</text>
  <text class="field" x="260" y="275">emailNotifications</text>
  <text class="field" x="260" y="290">notifyFriendRequests</text>
  <text class="field" x="260" y="305">notifyMessages</text>
  <text class="field" x="260" y="320">notifyPostLikes</text>
  <text class="field" x="260" y="335">notifyComments</text>
  <text class="field" x="260" y="350">theme</text>
  <text class="field" x="260" y="365">language</text>
  <text class="field" x="260" y="380">compactMode</text>
  <text class="field" x="260" y="395">autoplayVideos</text>
  <text class="field" x="260" y="410">profileBackground</text>
  <text class="field" x="260" y="425">createdAt</text>
  <text class="field" x="260" y="440">updatedAt</text>
  
  <!-- Profiles Table -->
  <rect class="table" x="500" y="50" width="180" height="440"/>
  <rect class="table-header" x="500" y="50" width="180" height="25"/>
  <text class="table-name" x="590" y="62">profiles</text>
  <text class="field pk" x="510" y="80">id (PK)</text>
  <text class="field fk" x="510" y="95">userId (FK)</text>
  <text class="field" x="510" y="110">type</text>
  <text class="field" x="510" y="125">name</text>
  <text class="field" x="510" y="140">bio</text>
  <text class="field" x="510" y="155">profileImageUrl</text>
  <text class="field" x="510" y="170">coverImageUrl</text>
  <text class="field" x="510" y="185">coverPositionX</text>
  <text class="field" x="510" y="200">coverPositionY</text>
  <text class="field" x="510" y="215">profilePositionX</text>
  <text class="field" x="510" y="230">profilePositionY</text>
  <text class="field" x="510" y="245">backgroundImageUrl</text>
  <text class="field" x="510" y="260">profileBackground</text>
  <text class="field" x="510" y="275">visibility</text>
  <text class="field" x="510" y="290">location</text>
  <text class="field" x="510" y="305">hometown</text>
  <text class="field" x="510" y="320">isActive</text>
  <text class="field" x="510" y="335">isShared</text>
  <text class="field" x="510" y="350">deletedAt</text>
  <text class="field fk" x="510" y="365">deletedBy (FK)</text>
  <text class="field" x="510" y="380">deletionReason</text>
  <text class="field" x="510" y="395">backupData</text>
  <text class="field" x="510" y="410">createdAt</text>
  <text class="field" x="510" y="425">updatedAt</text>
  
  <!-- Profile Memberships Table -->
  <rect class="table" x="750" y="50" width="180" height="240"/>
  <rect class="table-header" x="750" y="50" width="180" height="25"/>
  <text class="table-name" x="840" y="62">profile_memberships</text>
  <text class="field pk" x="760" y="80">id (PK)</text>
  <text class="field fk" x="760" y="95">profileId (FK)</text>
  <text class="field fk" x="760" y="110">userId (FK)</text>
  <text class="field" x="760" y="125">role</text>
  <text class="field" x="760" y="140">permissions</text>
  <text class="field" x="760" y="155">status</text>
  <text class="field fk" x="760" y="170">invitedBy (FK)</text>
  <text class="field" x="760" y="185">joinedAt</text>
  <text class="field" x="760" y="200">createdAt</text>
  <text class="field" x="760" y="215">updatedAt</text>
  
  <!-- Profile Invitations Table -->
  <rect class="table" x="1000" y="50" width="180" height="240"/>
  <rect class="table-header" x="1000" y="50" width="180" height="25"/>
  <text class="table-name" x="1090" y="62">profile_invitations</text>
  <text class="field pk" x="1010" y="80">id (PK)</text>
  <text class="field fk" x="1010" y="95">profileId (FK)</text>
  <text class="field" x="1010" y="110">invitedEmail</text>
  <text class="field fk" x="1010" y="125">invitedBy (FK)</text>
  <text class="field" x="1010" y="140">role</text>
  <text class="field" x="1010" y="155">permissions</text>
  <text class="field" x="1010" y="170">token</text>
  <text class="field" x="1010" y="185">status</text>
  <text class="field" x="1010" y="200">expiresAt</text>
  <text class="field" x="1010" y="215">createdAt</text>
  <text class="field" x="1010" y="230">updatedAt</text>
  
  <!-- Friendships Table -->
  <rect class="table" x="1250" y="50" width="180" height="160"/>
  <rect class="table-header" x="1250" y="50" width="180" height="25"/>
  <text class="table-name" x="1340" y="62">friendships</text>
  <text class="field pk" x="1260" y="80">id (PK)</text>
  <text class="field fk" x="1260" y="95">requesterId (FK)</text>
  <text class="field fk" x="1260" y="110">addresseeId (FK)</text>
  <text class="field" x="1260" y="125">status</text>
  <text class="field" x="1260" y="140">createdAt</text>
  <text class="field" x="1260" y="155">updatedAt</text>
  
  <!-- Posts Table -->
  <rect class="table" x="50" y="550" width="180" height="200"/>
  <rect class="table-header" x="50" y="550" width="180" height="25"/>
  <text class="table-name" x="140" y="562">posts</text>
  <text class="field pk" x="60" y="580">id (PK)</text>
  <text class="field fk" x="60" y="595">profileId (FK)</text>
  <text class="field" x="60" y="610">content</text>
  <text class="field" x="60" y="625">imageUrl</text>
  <text class="field" x="60" y="640">visibility</text>
  <text class="field" x="60" y="655">likesCount</text>
  <text class="field" x="60" y="670">commentsCount</text>
  <text class="field" x="60" y="685">createdAt</text>
  <text class="field" x="60" y="700">updatedAt</text>
  
  <!-- Post Likes Table -->
  <rect class="table" x="300" y="550" width="180" height="120"/>
  <rect class="table-header" x="300" y="550" width="180" height="25"/>
  <text class="table-name" x="390" y="562">post_likes</text>
  <text class="field pk" x="310" y="580">id (PK)</text>
  <text class="field fk" x="310" y="595">postId (FK)</text>
  <text class="field fk" x="310" y="610">profileId (FK)</text>
  <text class="field" x="310" y="625">createdAt</text>
  
  <!-- Comments Table -->
  <rect class="table" x="550" y="550" width="180" height="140"/>
  <rect class="table-header" x="550" y="550" width="180" height="25"/>
  <text class="table-name" x="640" y="562">comments</text>
  <text class="field pk" x="560" y="580">id (PK)</text>
  <text class="field fk" x="560" y="595">postId (FK)</text>
  <text class="field fk" x="560" y="610">profileId (FK)</text>
  <text class="field" x="560" y="625">content</text>
  <text class="field" x="560" y="640">createdAt</text>
  <text class="field" x="560" y="655">updatedAt</text>
  
  <!-- Events Table -->
  <rect class="table" x="800" y="350" width="180" height="380"/>
  <rect class="table-header" x="800" y="350" width="180" height="25"/>
  <text class="table-name" x="890" y="362">events</text>
  <text class="field pk" x="810" y="380">id (PK)</text>
  <text class="field fk" x="810" y="395">organizerProfileId (FK)</text>
  <text class="field fk" x="810" y="410">venueProfileId (FK)</text>
  <text class="field" x="810" y="425">artistProfileIds</text>
  <text class="field" x="810" y="440">name</text>
  <text class="field" x="810" y="455">description</text>
  <text class="field" x="810" y="470">eventDate</text>
  <text class="field" x="810" y="485">eventTime</text>
  <text class="field" x="810" y="500">duration</text>
  <text class="field" x="810" y="515">genre</text>
  <text class="field" x="810" y="530">ageRestriction</text>
  <text class="field" x="810" y="545">status</text>
  <text class="field" x="810" y="560">capacity</text>
  <text class="field" x="810" y="575">ticketsAvailable</text>
  <text class="field" x="810" y="590">ticketSalesStart</text>
  <text class="field" x="810" y="605">ticketSalesEnd</text>
  <text class="field" x="810" y="620">eventImageUrl</text>
  <text class="field" x="810" y="635">tags</text>
  <text class="field" x="810" y="650">socialLinks</text>
  <text class="field" x="810" y="665">requiresApproval</text>
  <text class="field" x="810" y="680">isPrivate</text>
  <text class="field fk" x="810" y="695">bookingRequestId (FK)</text>
  <text class="field" x="810" y="710">createdAt</text>
  
  <!-- Event Ticket Types Table -->
  <rect class="table" x="1050" y="350" width="180" height="220"/>
  <rect class="table-header" x="1050" y="350" width="180" height="25"/>
  <text class="table-name" x="1140" y="362">event_ticket_types</text>
  <text class="field pk" x="1060" y="380">id (PK)</text>
  <text class="field fk" x="1060" y="395">eventId (FK)</text>
  <text class="field" x="1060" y="410">name</text>
  <text class="field" x="1060" y="425">description</text>
  <text class="field" x="1060" y="440">price</text>
  <text class="field" x="1060" y="455">quantity</text>
  <text class="field" x="1060" y="470">quantitySold</text>
  <text class="field" x="1060" y="485">saleStart</text>
  <text class="field" x="1060" y="500">saleEnd</text>
  <text class="field" x="1060" y="515">isActive</text>
  <text class="field" x="1060" y="530">benefits</text>
  <text class="field" x="1060" y="545">createdAt</text>
  <text class="field" x="1060" y="560">updatedAt</text>
  
  <!-- Tickets Table -->
  <rect class="table" x="1300" y="350" width="180" height="280"/>
  <rect class="table-header" x="1300" y="350" width="180" height="25"/>
  <text class="table-name" x="1390" y="362">tickets</text>
  <text class="field pk" x="1310" y="380">id (PK)</text>
  <text class="field fk" x="1310" y="395">eventId (FK)</text>
  <text class="field fk" x="1310" y="410">ticketTypeId (FK)</text>
  <text class="field fk" x="1310" y="425">profileId (FK)</text>
  <text class="field fk" x="1310" y="440">originalPurchaserId (FK)</text>
  <text class="field" x="1310" y="455">ticketType</text>
  <text class="field" x="1310" y="470">sectionName</text>
  <text class="field" x="1310" y="485">rowName</text>
  <text class="field" x="1310" y="500">seatNumber</text>
  <text class="field" x="1310" y="515">price</text>
  <text class="field" x="1310" y="530">qrCode</text>
  <text class="field" x="1310" y="545">orderNumber</text>
  <text class="field" x="1310" y="560">status</text>
  <text class="field" x="1310" y="575">purchaseDate</text>
  <text class="field" x="1310" y="590">transferable</text>
  <text class="field" x="1310" y="605">returnable</text>
  <text class="field" x="1310" y="620">returnDeadline</text>
  
  <!-- Booking Requests Table -->
  <rect class="table" x="1550" y="50" width="180" height="280"/>
  <rect class="table-header" x="1550" y="50" width="180" height="25"/>
  <text class="table-name" x="1640" y="62">booking_requests</text>
  <text class="field pk" x="1560" y="80">id (PK)</text>
  <text class="field fk" x="1560" y="95">artistProfileId (FK)</text>
  <text class="field fk" x="1560" y="110">venueProfileId (FK)</text>
  <text class="field" x="1560" y="125">status</text>
  <text class="field" x="1560" y="140">requestedAt</text>
  <text class="field" x="1560" y="155">eventDate</text>
  <text class="field" x="1560" y="170">eventTime</text>
  <text class="field" x="1560" y="185">budget</text>
  <text class="field" x="1560" y="200">requirements</text>
  <text class="field" x="1560" y="215">message</text>
  <text class="field" x="1560" y="230">createdAt</text>
  <text class="field" x="1560" y="245">updatedAt</text>
  <text class="field" x="1560" y="260">respondedAt</text>
  
  <!-- Conversations Table -->
  <rect class="table" x="50" y="800" width="180" height="280"/>
  <rect class="table-header" x="50" y="800" width="180" height="25"/>
  <text class="table-name" x="140" y="812">conversations</text>
  <text class="field pk" x="60" y="830">id (PK)</text>
  <text class="field" x="60" y="845">type</text>
  <text class="field" x="60" y="860">name</text>
  <text class="field" x="60" y="875">description</text>
  <text class="field" x="60" y="890">imageUrl</text>
  <text class="field fk" x="60" y="905">createdBy (FK)</text>
  <text class="field" x="60" y="920">isPrivate</text>
  <text class="field" x="60" y="935">maxMembers</text>
  <text class="field" x="60" y="950">settings</text>
  <text class="field" x="60" y="965">isArchived</text>
  <text class="field fk" x="60" y="980">lastMessageId (FK)</text>
  <text class="field" x="60" y="995">lastActivityAt</text>
  <text class="field" x="60" y="1010">createdAt</text>
  <text class="field" x="60" y="1025">updatedAt</text>
  
  <!-- Messages Table -->
  <rect class="table" x="300" y="800" width="180" height="260"/>
  <rect class="table-header" x="300" y="800" width="180" height="25"/>
  <text class="table-name" x="390" y="812">messages</text>
  <text class="field pk" x="310" y="830">id (PK)</text>
  <text class="field fk" x="310" y="845">conversationId (FK)</text>
  <text class="field fk" x="310" y="860">senderId (FK)</text>
  <text class="field fk" x="310" y="875">replyToId (FK)</text>
  <text class="field" x="310" y="890">content</text>
  <text class="field" x="310" y="905">messageType</text>
  <text class="field" x="310" y="920">attachments</text>
  <text class="field" x="310" y="935">reactions</text>
  <text class="field" x="310" y="950">isPinned</text>
  <text class="field" x="310" y="965">editedAt</text>
  <text class="field" x="310" y="980">deletedAt</text>
  <text class="field" x="310" y="995">createdAt</text>
  <text class="field" x="310" y="1010">updatedAt</text>
  
  <!-- Conversation Participants Table -->
  <rect class="table" x="550" y="800" width="180" height="220"/>
  <rect class="table-header" x="550" y="800" width="180" height="25"/>
  <text class="table-name" x="640" y="812">conversation_participants</text>
  <text class="field pk" x="560" y="830">id (PK)</text>
  <text class="field fk" x="560" y="845">conversationId (FK)</text>
  <text class="field fk" x="560" y="860">profileId (FK)</text>
  <text class="field" x="560" y="875">role</text>
  <text class="field" x="560" y="890">joinedAt</text>
  <text class="field" x="560" y="905">leftAt</text>
  <text class="field" x="560" y="920">lastReadAt</text>
  <text class="field" x="560" y="935">isMuted</text>
  <text class="field" x="560" y="950">isArchived</text>
  <text class="field" x="560" y="965">createdAt</text>
  
  <!-- Albums Table -->
  <rect class="table" x="800" y="800" width="180" height="160"/>
  <rect class="table-header" x="800" y="800" width="180" height="25"/>
  <text class="table-name" x="890" y="812">albums</text>
  <text class="field pk" x="810" y="830">id (PK)</text>
  <text class="field fk" x="810" y="845">profileId (FK)</text>
  <text class="field" x="810" y="860">name</text>
  <text class="field" x="810" y="875">description</text>
  <text class="field fk" x="810" y="890">coverPhotoId (FK)</text>
  <text class="field" x="810" y="905">createdAt</text>
  <text class="field" x="810" y="920">updatedAt</text>
  
  <!-- Photos Table -->
  <rect class="table" x="1050" y="800" width="180" height="180"/>
  <rect class="table-header" x="1050" y="800" width="180" height="25"/>
  <text class="table-name" x="1140" y="812">photos</text>
  <text class="field pk" x="1060" y="830">id (PK)</text>
  <text class="field fk" x="1060" y="845">profileId (FK)</text>
  <text class="field fk" x="1060" y="860">albumId (FK)</text>
  <text class="field" x="1060" y="875">imageUrl</text>
  <text class="field" x="1060" y="890">caption</text>
  <text class="field" x="1060" y="905">tags</text>
  <text class="field" x="1060" y="920">friendTags</text>
  <text class="field" x="1060" y="935">commentsCount</text>
  <text class="field" x="1060" y="950">createdAt</text>
  
  <!-- Notifications Table -->
  <rect class="table" x="1300" y="800" width="180" height="220"/>
  <rect class="table-header" x="1300" y="800" width="180" height="25"/>
  <text class="table-name" x="1390" y="812">notifications</text>
  <text class="field pk" x="1310" y="830">id (PK)</text>
  <text class="field fk" x="1310" y="845">recipientId (FK)</text>
  <text class="field fk" x="1310" y="860">senderId (FK)</text>
  <text class="field" x="1310" y="875">type</text>
  <text class="field" x="1310" y="890">title</text>
  <text class="field" x="1310" y="905">message</text>
  <text class="field" x="1310" y="920">data</text>
  <text class="field" x="1310" y="935">read</text>
  <text class="field" x="1310" y="950">emailSent</text>
  <text class="field" x="1310" y="965">createdAt</text>
  <text class="field" x="1310" y="980">updatedAt</text>
  
  <!-- Contract Proposals Table -->
  <rect class="table" x="1550" y="400" width="180" height="260"/>
  <rect class="table-header" x="1550" y="400" width="180" height="25"/>
  <text class="table-name" x="1640" y="412">contract_proposals</text>
  <text class="field pk" x="1560" y="430">id (PK)</text>
  <text class="field fk" x="1560" y="445">bookingRequestId (FK)</text>
  <text class="field fk" x="1560" y="460">proposedBy (FK)</text>
  <text class="field fk" x="1560" y="475">proposedTo (FK)</text>
  <text class="field" x="1560" y="490">title</text>
  <text class="field" x="1560" y="505">description</text>
  <text class="field" x="1560" y="520">terms</text>
  <text class="field" x="1560" y="535">payment</text>
  <text class="field" x="1560" y="550">requirements</text>
  <text class="field" x="1560" y="565">attachments</text>
  <text class="field" x="1560" y="580">status</text>
  <text class="field" x="1560" y="595">expiresAt</text>
  <text class="field" x="1560" y="610">acceptedAt</text>
  <text class="field" x="1560" y="625">rejectedAt</text>
  <text class="field" x="1560" y="640">createdAt</text>
  
  <!-- Calendar Events Table -->
  <rect class="table" x="1800" y="50" width="180" height="260"/>
  <rect class="table-header" x="1800" y="50" width="180" height="25"/>
  <text class="table-name" x="1890" y="62">calendar_events</text>
  <text class="field pk" x="1810" y="80">id (PK)</text>
  <text class="field fk" x="1810" y="95">profileId (FK)</text>
  <text class="field" x="1810" y="110">title</text>
  <text class="field" x="1810" y="125">date</text>
  <text class="field" x="1810" y="140">startTime</text>
  <text class="field" x="1810" y="155">endTime</text>
  <text class="field" x="1810" y="170">type</text>
  <text class="field" x="1810" y="185">status</text>
  <text class="field" x="1810" y="200">client</text>
  <text class="field" x="1810" y="215">location</text>
  <text class="field" x="1810" y="230">notes</text>
  <text class="field" x="1810" y="245">budget</text>
  <text class="field" x="1810" y="260">isPrivate</text>
  <text class="field" x="1810" y="275">createdAt</text>
  <text class="field" x="1810" y="290">updatedAt</text>
  
  <!-- Profile Views Table -->
  <rect class="table" x="1800" y="350" width="180" height="180"/>
  <rect class="table-header" x="1800" y="350" width="180" height="25"/>
  <text class="table-name" x="1890" y="362">profile_views</text>
  <text class="field pk" x="1810" y="380">id (PK)</text>
  <text class="field fk" x="1810" y="395">viewerId (FK)</text>
  <text class="field fk" x="1810" y="410">viewerProfileId (FK)</text>
  <text class="field fk" x="1810" y="425">viewedProfileId (FK)</text>
  <text class="field" x="1810" y="440">viewedAt</text>
  <text class="field" x="1810" y="455">sessionId</text>
  <text class="field" x="1810" y="470">ipAddress</text>
  <text class="field" x="1810" y="485">userAgent</text>
  
  <!-- Key Relationships -->
  <!-- Users to Profiles -->
  <path class="connection" d="M 430 240 L 500 240"/>
  <text class="connection-label" x="465" y="235">1:M</text>
  
  <!-- Profiles to Profile Memberships -->
  <path class="connection" d="M 680 150 L 750 150"/>
  <text class="connection-label" x="715" y="145">1:M</text>
  
  <!-- Users to Profile Memberships -->
  <path class="connection" d="M 430 200 Q 600 200 750 120"/>
  <text class="connection-label" x="590" y="190">1:M</text>
  
  <!-- Profiles to Profile Invitations -->
  <path class="connection" d="M 680 120 L 1000 120"/>
  <text class="connection-label" x="840" y="115">1:M</text>
  
  <!-- Profiles to Friendships -->
  <path class="connection" d="M 680 100 L 1250 100"/>
  <text class="connection-label" x="965" y="95">M:M</text>
  
  <!-- Profiles to Posts -->
  <path class="connection" d="M 590 490 L 140 550"/>
  <text class="connection-label" x="365" y="520">1:M</text>
  
  <!-- Posts to Post Likes -->
  <path class="connection" d="M 230 610 L 300 610"/>
  <text class="connection-label" x="265" y="605">1:M</text>
  
  <!-- Profiles to Post Likes -->
  <path class="connection" d="M 590 490 Q 590 520 390 550"/>
  <text class="connection-label" x="490" y="515">1:M</text>
  
  <!-- Posts to Comments -->
  <path class="connection" d="M 230 620 L 550 620"/>
  <text class="connection-label" x="390" y="615">1:M</text>
  
  <!-- Profiles to Comments -->
  <path class="connection" d="M 640 490 L 640 550"/>
  <text class="connection-label" x="645" y="520">1:M</text>
  
  <!-- Profiles to Events -->
  <path class="connection" d="M 680 400 L 800 450"/>
  <text class="connection-label" x="740" y="425">1:M</text>
  
  <!-- Events to Event Ticket Types -->
  <path class="connection" d="M 980 450 L 1050 450"/>
  <text class="connection-label" x="1015" y="445">1:M</text>
  
  <!-- Events to Tickets -->
  <path class="connection" d="M 980 500 L 1300 500"/>
  <text class="connection-label" x="1140" y="495">1:M</text>
  
  <!-- Event Ticket Types to Tickets -->
  <path class="connection" d="M 1230 450 L 1300 450"/>
  <text class="connection-label" x="1265" y="445">1:M</text>
  
  <!-- Profiles to Booking Requests -->
  <path class="connection" d="M 680 200 L 1550 200"/>
  <text class="connection-label" x="1115" y="195">1:M</text>
  
  <!-- Booking Requests to Events -->
  <path class="connection" d="M 1640 330 L 890 350"/>
  <text class="connection-label" x="1265" y="340">1:M</text>
  
  <!-- Profiles to Conversations -->
  <path class="connection" d="M 590 490 Q 400 600 140 800"/>
  <text class="connection-label" x="365" y="645">1:M</text>
  
  <!-- Conversations to Messages -->
  <path class="connection" d="M 230 900 L 300 900"/>
  <text class="connection-label" x="265" y="895">1:M</text>
  
  <!-- Profiles to Messages -->
  <path class="connection" d="M 590 490 Q 450 650 390 800"/>
  <text class="connection-label" x="440" y="645">1:M</text>
  
  <!-- Conversations to Conversation Participants -->
  <path class="connection" d="M 230 950 L 550 870"/>
  <text class="connection-label" x="390" y="910">1:M</text>
  
  <!-- Profiles to Albums -->
  <path class="connection" d="M 680 450 L 800 850"/>
  <text class="connection-label" x="740" y="650">1:M</text>
  
  <!-- Albums to Photos -->
  <path class="connection" d="M 980 880 L 1050 880"/>
  <text class="connection-label" x="1015" y="875">1:M</text>
  
  <!-- Profiles to Photos -->
  <path class="connection" d="M 680 400 Q 875 600 1140 800"/>
  <text class="connection-label" x="910" y="600">1:M</text>
  
  <!-- Users to Notifications -->
  <path class="connection" d="M 430 300 Q 865 500 1390 800"/>
  <text class="connection-label" x="910" y="550">1:M</text>
  
  <!-- Booking Requests to Contract Proposals -->
  <path class="connection" d="M 1640 330 L 1640 400"/>
  <text class="connection-label" x="1645" y="365">1:M</text>
  
  <!-- Profiles to Calendar Events -->
  <path class="connection" d="M 680 250 L 1800 150"/>
  <text class="connection-label" x="1240" y="200">1:M</text>
  
  <!-- Users to Profile Views -->
  <path class="connection" d="M 430 350 Q 1115 300 1800 400"/>
  <text class="connection-label" x="1115" y="375">1:M</text>
  
  <!-- Legend -->
  <rect fill="#f9fafb" stroke="#d1d5db" x="50" y="1150" width="400" height="140"/>
  <text class="table-name" x="250" y="1170" fill="#1f2937">Entity Relationship Diagram - Discovery Platform</text>
  <text class="field pk" x="60" y="1195">Primary Key (PK)</text>
  <text class="field fk" x="60" y="1215">Foreign Key (FK)</text>
  <text class="field" x="60" y="1235">Regular Field</text>
  <text class="connection-label" x="60" y="1255">1:M = One-to-Many Relationship</text>
  <text class="connection-label" x="60" y="1275">M:M = Many-to-Many Relationship</text>
  
  <!-- Additional Tables Note -->
  <text class="field" x="250" y="1195" fill="#6b7280">Core Tables: Users, Profiles, Events, Messages</text>
  <text class="field" x="250" y="1215" fill="#6b7280">Social Features: Posts, Comments, Friendships</text>
  <text class="field" x="250" y="1235" fill="#6b7280">Business Logic: Bookings, Contracts, Tickets</text>
  <text class="field" x="250" y="1255" fill="#6b7280">Media & Content: Photos, Albums, Notifications</text>
  <text class="field" x="250" y="1275" fill="#6b7280">Note: Simplified view - Additional tables exist</text>
</svg>
